HIERARCHY
ROOT newVegas:Hips
{
	OFFSET 0.000000 96.479958 0.000000
	CHANNELS 6 Xposition Yposition Zposition Xrotation Yrotation Zrotation
	JOINT newVegas:Pelvis
	{
		OFFSET 0.000000 0.000000 0.000000
		CHANNELS 3 Xrotation Yrotation Zrotation
		JOINT newVegas:LeftUpLeg
		{
			OFFSET 18.735201 -5.666702 -4.541200
			CHANNELS 3 Xrotation Yrotation Zrotation
			JOINT newVegas:LeftLeg
			{
				OFFSET -0.021200 -31.938179 0.493100
				CHANNELS 3 Xrotation Yrotation Zrotation
				JOINT newVegas:LeftFoot
				{
					OFFSET 0.021200 -31.938179 -4.336299
					CHANNELS 3 Xrotation Yrotation Zrotation
					JOINT newVegas:LeftToeBase
					{
						OFFSET 0.943001 -26.722000 15.023500
						CHANNELS 3 Xrotation Yrotation Zrotation
						End Site
						{
							OFFSET 0.000000 30.670183 0.000000
						}
					}
				}
				JOINT newVegas:Left_PantLeg
				{
					OFFSET 0.663870 -9.044666 -1.108900
					CHANNELS 3 Xrotation Yrotation Zrotation
					End Site
					{
						OFFSET 1.415995 20.635357 0.000000
					}
				}
			}
		}
		JOINT newVegas:RightUpLeg
		{
			OFFSET -18.735201 -5.666702 -4.541200
			CHANNELS 3 Xrotation Yrotation Zrotation
			JOINT newVegas:RightLeg
			{
				OFFSET 0.018946 -31.938133 0.493100
				CHANNELS 3 Xrotation Yrotation Zrotation
				JOINT newVegas:RightFoot
				{
					OFFSET -0.018946 -31.938126 -4.336299
					CHANNELS 3 Xrotation Yrotation Zrotation
					JOINT newVegas:RightToeBase
					{
						OFFSET -0.943001 -26.722004 15.023500
						CHANNELS 3 Xrotation Yrotation Zrotation
						End Site
						{
							OFFSET 0.000000 30.670187 0.000000
						}
					}
				}
				JOINT newVegas:Right_PantLeg
				{
					OFFSET -0.661674 -9.044716 -1.108900
					CHANNELS 3 Xrotation Yrotation Zrotation
					End Site
					{
						OFFSET -1.415958 20.635269 0.000000
					}
				}
			}
		}
	}
	JOINT newVegas:Spine
	{
		OFFSET 0.000000 10.199997 -0.299500
		CHANNELS 3 Xrotation Yrotation Zrotation
		JOINT newVegas:Spine1
		{
			OFFSET 0.000000 11.900002 -1.516600
			CHANNELS 3 Xrotation Yrotation Zrotation
			JOINT newVegas:Spine2
			{
				OFFSET 0.000000 13.600006 -2.842500
				CHANNELS 3 Xrotation Yrotation Zrotation
				JOINT newVegas:Neck
				{
					OFFSET 0.000000 9.624100 -2.890100
					CHANNELS 3 Xrotation Yrotation Zrotation
					JOINT newVegas:Head
					{
						OFFSET 0.000000 14.068802 -1.351900
						CHANNELS 3 Xrotation Yrotation Zrotation
						JOINT newVegas:Hair_Back
						{
							OFFSET 0.000000 3.231903 -17.524799
							CHANNELS 3 Xrotation Yrotation Zrotation
							End Site
							{
								OFFSET 0.000000 19.849884 0.000000
							}
						}
						JOINT newVegas:Hair_Front
						{
							OFFSET 0.000000 31.260406 4.573800
							CHANNELS 3 Xrotation Yrotation Zrotation
							JOINT newVegas:Hair_Front1
							{
								OFFSET 0.000000 2.284103 11.993300
								CHANNELS 3 Xrotation Yrotation Zrotation
								JOINT newVegas:Hair_Front2
								{
									OFFSET 0.000000 2.284103 11.993300
									CHANNELS 3 Xrotation Yrotation Zrotation
									End Site
									{
										OFFSET 0.000000 12.208862 0.000000
									}
								}
							}
						}
						JOINT newVegas:Jowel
						{
							OFFSET 0.000000 -7.458206 6.864100
							CHANNELS 3 Xrotation Yrotation Zrotation
							End Site
							{
								OFFSET 0.000000 19.849884 0.000000
							}
						}
					}
				}
				JOINT newVegas:LeftShoulder
				{
					OFFSET 15.263000 10.923401 -0.547700
					CHANNELS 3 Xrotation Yrotation Zrotation
					JOINT newVegas:LeftArm
					{
						OFFSET 25.438599 -2.830597 -13.032500
						CHANNELS 3 Xrotation Yrotation Zrotation
						JOINT newVegas:LeftForeArm
						{
							OFFSET 29.960503 0.000000 0.000000
							CHANNELS 3 Xrotation Yrotation Zrotation
							JOINT newVegas:LeftHand
							{
								OFFSET 27.849251 0.000000 0.000000
								CHANNELS 3 Xrotation Yrotation Zrotation
								JOINT newVegas:LeftHandThumb1
								{
									OFFSET 4.487587 -3.305161 6.305391
									CHANNELS 3 Xrotation Yrotation Zrotation
									JOINT newVegas:LeftHandThumb2
									{
										OFFSET 5.480453 -3.164139 3.164143
										CHANNELS 3 Xrotation Yrotation Zrotation
										JOINT newVegas:LeftHandThumb3
										{
											OFFSET 5.159721 -2.978973 2.978967
											CHANNELS 3 Xrotation Yrotation Zrotation
											End Site
											{
												OFFSET 2.494507 5.926697 1.738678
											}
										}
									}
								}
								JOINT newVegas:LeftHandIndex1
								{
									OFFSET 18.578728 -0.527832 5.208049
									CHANNELS 3 Xrotation Yrotation Zrotation
									JOINT newVegas:LeftHandIndex2
									{
										OFFSET 3.192009 0.000000 0.000000
										CHANNELS 3 Xrotation Yrotation Zrotation
										JOINT newVegas:LeftHandIndex3
										{
											OFFSET 3.835129 0.000000 0.000000
											CHANNELS 3 Xrotation Yrotation Zrotation
											End Site
											{
												OFFSET -0.034599 3.816971 0.371180
											}
										}
									}
								}
								JOINT newVegas:LeftHandMiddle1
								{
									OFFSET 18.476105 0.000000 0.000000
									CHANNELS 3 Xrotation Yrotation Zrotation
									JOINT newVegas:LeftHandMiddle2
									{
										OFFSET 3.324875 0.000000 0.000000
										CHANNELS 3 Xrotation Yrotation Zrotation
										JOINT newVegas:LeftHandMiddle3
										{
											OFFSET 4.596550 0.000000 0.000000
											CHANNELS 3 Xrotation Yrotation Zrotation
											End Site
											{
												OFFSET 0.057701 4.578827 0.399218
											}
										}
									}
								}
								JOINT newVegas:LeftHandRing1
								{
									OFFSET 17.732719 0.121887 -4.201567
									CHANNELS 3 Xrotation Yrotation Zrotation
									JOINT newVegas:LeftHandRing2
									{
										OFFSET 2.733170 0.000000 0.000000
										CHANNELS 3 Xrotation Yrotation Zrotation
										JOINT newVegas:LeftHandRing3
										{
											OFFSET 3.178268 0.000000 0.000000
											CHANNELS 3 Xrotation Yrotation Zrotation
											End Site
											{
												OFFSET 0.119102 3.170624 0.185394
											}
										}
									}
								}
								JOINT newVegas:LeftHandPinky1
								{
									OFFSET 15.989624 -0.606689 -7.535461
									CHANNELS 3 Xrotation Yrotation Zrotation
									JOINT newVegas:LeftHandPinky2
									{
										OFFSET 2.538986 0.000000 0.000000
										CHANNELS 3 Xrotation Yrotation Zrotation
										JOINT newVegas:LeftHandPinky3
										{
											OFFSET 2.593102 0.000000 0.000000
											CHANNELS 3 Xrotation Yrotation Zrotation
											End Site
											{
												OFFSET -0.150902 2.584198 0.152708
											}
										}
									}
								}
							}
							JOINT newVegas:Left_Sleeve
							{
								OFFSET 0.267448 -0.649796 0.577675
								CHANNELS 3 Xrotation Yrotation Zrotation
								End Site
								{
									OFFSET 0.000000 15.991241 0.000000
								}
							}
							JOINT newVegas:Left_CapeC
							{
								OFFSET 15.715958 -8.608795 -6.935905
								CHANNELS 3 Xrotation Yrotation Zrotation
								JOINT newVegas:Left_CapeC1
								{
									OFFSET 0.000000 -8.688499 0.000000
									CHANNELS 3 Xrotation Yrotation Zrotation
									End Site
									{
										OFFSET 0.000000 8.688499 0.000000
									}
								}
							}
						}
						JOINT newVegas:Left_CapeB
						{
							OFFSET 26.118385 -8.608795 -7.079235
							CHANNELS 3 Xrotation Yrotation Zrotation
							JOINT newVegas:Left_CapeB1
							{
								OFFSET 0.000000 -8.688499 0.000000
								CHANNELS 3 Xrotation Yrotation Zrotation
								End Site
								{
									OFFSET 0.000000 8.688499 0.000000
								}
							}
						}
						JOINT newVegas:Left_CapeA
						{
							OFFSET 5.115639 -8.608795 -10.395809
							CHANNELS 3 Xrotation Yrotation Zrotation
							JOINT newVegas:Left_CapeA1
							{
								OFFSET 0.000000 -8.688499 0.000000
								CHANNELS 3 Xrotation Yrotation Zrotation
								End Site
								{
									OFFSET 0.000000 8.688499 0.000000
								}
							}
						}
					}
				}
				JOINT newVegas:RightShoulder
				{
					OFFSET -15.263000 10.923401 -0.547700
					CHANNELS 3 Xrotation Yrotation Zrotation
					JOINT newVegas:RightArm
					{
						OFFSET -25.438599 -2.830597 -13.032500
						CHANNELS 3 Xrotation Yrotation Zrotation
						JOINT newVegas:RightForeArm
						{
							OFFSET -29.960503 0.000000 0.000000
							CHANNELS 3 Xrotation Yrotation Zrotation
							JOINT newVegas:RightHand
							{
								OFFSET -27.849251 0.000000 0.000000
								CHANNELS 3 Xrotation Yrotation Zrotation
								JOINT newVegas:RightHandThumb1
								{
									OFFSET -4.487587 -3.305161 6.305391
									CHANNELS 3 Xrotation Yrotation Zrotation
									JOINT newVegas:RightHandThumb2
									{
										OFFSET -5.480453 -3.164139 3.164143
										CHANNELS 3 Xrotation Yrotation Zrotation
										JOINT newVegas:RightHandThumb3
										{
											OFFSET -5.159721 -2.978973 2.978967
											CHANNELS 3 Xrotation Yrotation Zrotation
											End Site
											{
												OFFSET -2.494507 5.926697 1.738678
											}
										}
									}
								}
								JOINT newVegas:RightHandIndex1
								{
									OFFSET -18.578728 -0.527832 5.208049
									CHANNELS 3 Xrotation Yrotation Zrotation
									JOINT newVegas:RightHandIndex2
									{
										OFFSET -3.192009 0.000000 0.000000
										CHANNELS 3 Xrotation Yrotation Zrotation
										JOINT newVegas:RightHandIndex3
										{
											OFFSET -3.835129 0.000000 0.000000
											CHANNELS 3 Xrotation Yrotation Zrotation
											End Site
											{
												OFFSET 0.034599 3.816971 0.371180
											}
										}
									}
								}
								JOINT newVegas:RightHandMiddle1
								{
									OFFSET -18.476105 0.000000 0.000000
									CHANNELS 3 Xrotation Yrotation Zrotation
									JOINT newVegas:RightHandMiddle2
									{
										OFFSET -3.324875 0.000000 0.000000
										CHANNELS 3 Xrotation Yrotation Zrotation
										JOINT newVegas:RightHandMiddle3
										{
											OFFSET -4.596550 0.000000 0.000000
											CHANNELS 3 Xrotation Yrotation Zrotation
											End Site
											{
												OFFSET -0.057701 4.578827 0.399218
											}
										}
									}
								}
								JOINT newVegas:RightHandRing1
								{
									OFFSET -17.732719 0.121887 -4.201567
									CHANNELS 3 Xrotation Yrotation Zrotation
									JOINT newVegas:RightHandRing2
									{
										OFFSET -2.733170 0.000000 0.000000
										CHANNELS 3 Xrotation Yrotation Zrotation
										JOINT newVegas:RightHandRing3
										{
											OFFSET -3.178268 0.000000 0.000000
											CHANNELS 3 Xrotation Yrotation Zrotation
											End Site
											{
												OFFSET -0.119102 3.170624 0.185394
											}
										}
									}
								}
								JOINT newVegas:RightHandPinky1
								{
									OFFSET -15.989624 -0.606689 -7.535461
									CHANNELS 3 Xrotation Yrotation Zrotation
									JOINT newVegas:RightHandPinky2
									{
										OFFSET -2.538986 0.000000 0.000000
										CHANNELS 3 Xrotation Yrotation Zrotation
										JOINT newVegas:RightHandPinky3
										{
											OFFSET -2.593102 0.000000 0.000000
											CHANNELS 3 Xrotation Yrotation Zrotation
											End Site
											{
												OFFSET 0.150902 2.584198 0.152708
											}
										}
									}
								}
							}
							JOINT newVegas:Right_CapeC
							{
								OFFSET -15.715958 -8.608795 -6.935905
								CHANNELS 3 Xrotation Yrotation Zrotation
								JOINT newVegas:Right_CapeC1
								{
									OFFSET 0.000000 -8.688499 0.000000
									CHANNELS 3 Xrotation Yrotation Zrotation
									End Site
									{
										OFFSET 0.000000 8.688499 0.000000
									}
								}
							}
							JOINT newVegas:Right_Sleeve
							{
								OFFSET -0.267448 -0.649994 0.577675
								CHANNELS 3 Xrotation Yrotation Zrotation
								End Site
								{
									OFFSET 0.000000 15.991302 0.000000
								}
							}
						}
						JOINT newVegas:Right_CapeA
						{
							OFFSET -5.115540 -8.608795 -10.395824
							CHANNELS 3 Xrotation Yrotation Zrotation
							JOINT newVegas:Right_CapeA1
							{
								OFFSET 0.000000 -8.688499 0.000000
								CHANNELS 3 Xrotation Yrotation Zrotation
								End Site
								{
									OFFSET 0.000000 8.688499 0.000000
								}
							}
						}
						JOINT newVegas:Right_CapeB
						{
							OFFSET -26.118187 -8.608795 -7.079266
							CHANNELS 3 Xrotation Yrotation Zrotation
							JOINT newVegas:Right_CapeB1
							{
								OFFSET 0.000000 -8.688499 0.000000
								CHANNELS 3 Xrotation Yrotation Zrotation
								End Site
								{
									OFFSET 0.000000 8.688499 0.000000
								}
							}
						}
					}
				}
				JOINT newVegas:Left_Collar
				{
					OFFSET 18.625099 8.655502 8.828100
					CHANNELS 3 Xrotation Yrotation Zrotation
					JOINT newVegas:Left_Collar1
					{
						OFFSET 14.783401 10.540405 -1.259500
						CHANNELS 3 Xrotation Yrotation Zrotation
						End Site
						{
							OFFSET 0.000000 18.199875 0.000000
						}
					}
				}
				JOINT newVegas:Collar_Back
				{
					OFFSET 0.000000 15.630707 -20.132601
					CHANNELS 3 Xrotation Yrotation Zrotation
					End Site
					{
						OFFSET 0.000000 22.523010 0.000000
					}
				}
				JOINT newVegas:Left_Peck
				{
					OFFSET 17.239599 -5.132599 25.482599
					CHANNELS 3 Xrotation Yrotation Zrotation
					End Site
					{
						OFFSET 0.000000 22.523010 0.000000
					}
				}
				JOINT newVegas:Right_Peck
				{
					OFFSET -17.239599 -5.132202 25.482599
					CHANNELS 3 Xrotation Yrotation Zrotation
					End Site
					{
						OFFSET 0.000000 22.523010 0.000000
					}
				}
				JOINT newVegas:Right_Collar
				{
					OFFSET -18.625099 8.655792 8.828100
					CHANNELS 3 Xrotation Yrotation Zrotation
					JOINT newVegas:Right_Collar1
					{
						OFFSET -14.783401 10.539993 -1.259500
						CHANNELS 3 Xrotation Yrotation Zrotation
						End Site
						{
							OFFSET 0.000000 18.199631 0.000000
						}
					}
				}
			}
		}
		JOINT newVegas:Belly
		{
			OFFSET 0.000000 -6.540398 9.014299
			CHANNELS 3 Xrotation Yrotation Zrotation
			End Site
			{
				OFFSET 0.000000 11.566666 0.000000
			}
		}
	}
	JOINT newVegas:ElvisFacialAnim_Joint
	{
		OFFSET 1.000000 -95.330101 -8.825800
		CHANNELS 3 Xrotation Yrotation Zrotation
		End Site
		{
			OFFSET 0.000000 35.315800 0.000000
		}
	}
}
MOTION
Frames: 4
Frame Time: 0.033333
-2.683964 86.489616 2.217458 6.337920 -37.420899 2.783159 0.000001 -0.000003 0.000000 -44.419251 -0.531308 19.432882 44.732265 1.592565 -1.658623 -3.069472 1.562538 -12.629893 -0.000000 -0.000002 -0.000000 -0.000000 0.000000 0.000002 -7.908597 -21.850335 -20.095514 22.341861 -1.049426 -10.127275 -16.629059 -6.354577 29.665113 -0.000000 0.000000 0.000000 0.000001 -0.000002 0.000000 3.215586 3.515302 -0.584854 1.993594 3.214892 -0.022506 1.988395 3.224238 -0.067602 5.028384 0.591984 -0.712130 5.028359 0.591979 -0.712123 0.000001 0.000002 -0.000001 5.028285 0.591937 -0.712136 5.028550 0.592194 -0.712186 0.000000 0.000000 -0.000001 0.000001 0.000002 -0.000001 0.529818 -2.431060 -3.116274 -53.377314 6.012689 -42.347494 0.000013 -131.554197 0.000028 13.332881 -16.244743 -26.654047 2.771030 3.202183 -11.750344 7.281930 15.699135 13.458068 0.000002 0.000001 -0.000003 3.214224 5.829183 -59.162279 2.821620 5.560793 -53.780650 -0.000002 0.000004 0.000001 3.525873 6.011159 -60.791539 3.983616 6.244039 -65.044069 -0.000002 0.000002 0.000000 4.045662 6.272974 -64.879933 3.563333 6.031842 -61.114811 -0.000001 -0.000001 0.000001 6.738241 7.521681 -64.939977 3.058207 1.637396 -56.291247 0.000002 -0.000002 -0.000001 0.000001 0.000000 -0.000002 0.000001 0.000000 -0.000002 0.000001 0.000000 -0.000002 -0.000000 -0.000002 -0.000003 -0.000000 -0.000003 -0.000002 -0.000000 -0.000002 -0.000003 -0.000000 -0.000003 -0.000002 0.709805 6.400762 4.978542 -49.214477 21.389595 61.829495 -0.000034 115.802169 0.000033 10.049139 18.024548 13.890810 2.446826 -3.214417 11.308542 7.892695 -16.398850 -12.930286 -0.000000 -0.000001 -0.000000 3.246733 -5.886742 59.158748 2.848868 -5.614896 53.776788 0.000002 0.000001 0.000002 3.561740 -6.070615 60.804229 4.020420 -6.303987 65.024808 0.000003 0.000000 -0.000001 4.084077 -6.333668 64.876764 3.597796 -6.090536 61.111369 -0.000003 0.000001 -0.000000 3.078109 -5.867180 65.018080 3.068682 -5.768687 55.993064 0.000001 0.000002 -0.000002 -0.000001 -0.000004 0.000001 -0.000003 0.000001 -0.000003 -0.000001 -0.000004 0.000001 -0.000001 -0.000002 -0.000002 -0.000002 -0.000002 -0.000001 -0.000001 -0.000002 -0.000002 -0.000001 -0.000002 -0.000002 0.000001 -0.000002 0.000000 0.000001 -0.000002 0.000000 0.000001 -0.000002 0.000000 0.000001 -0.000002 0.000000 0.000001 -0.000002 0.000000 0.000001 -0.000002 0.000000 0.000001 -0.000002 0.000000 0.000000 -0.000001 -0.000000 0.000001 -0.000003 0.000000 
-2.899370 86.442131 2.398514 6.260062 -36.675090 2.707664 0.000000 -0.000001 0.000000 -44.585409 -0.555966 19.285693 44.751854 0.959557 -1.649945 -3.089400 1.554857 -12.499861 -0.000000 -0.000000 -0.000000 0.000000 -0.000001 0.000001 -7.076840 -22.131003 -19.750190 22.184851 -1.800865 -10.094123 -17.006498 -6.437877 29.546705 -0.000000 0.000000 0.000000 -0.000002 -0.000004 0.000000 3.194199 3.489413 -0.619649 1.971363 3.190588 -0.025805 1.964734 3.201169 -0.070747 5.017785 0.581588 -0.730662 5.017776 0.581569 -0.730653 -0.000000 -0.000000 0.000000 5.017778 0.581575 -0.730659 5.017856 0.581547 -0.730655 -0.000003 0.000003 -0.000001 -0.000000 -0.000000 0.000000 0.528374 -2.406907 -3.109785 -53.223529 5.736437 -42.460752 -0.000006 -131.509241 0.000006 13.413785 -16.335507 -26.579048 2.771027 3.202181 -11.750341 7.281925 15.699135 13.458072 0.000003 -0.000006 -0.000003 3.214225 5.829182 -59.162279 2.821622 5.560797 -53.780647 -0.000002 0.000001 -0.000000 3.525874 6.011156 -60.791539 3.983616 6.244041 -65.044062 -0.000002 -0.000000 -0.000000 4.045665 6.272972 -64.879933 3.563328 6.031841 -61.114811 0.000001 -0.000001 0.000001 6.738241 7.521681 -64.939977 3.058205 1.637400 -56.291243 0.000002 -0.000002 -0.000001 0.000001 0.000001 -0.000000 0.000001 0.000001 -0.000000 0.000001 0.000001 -0.000000 -0.000001 0.000001 -0.000002 -0.000001 -0.000000 -0.000003 -0.000001 0.000001 -0.000002 -0.000001 0.000000 -0.000001 0.710163 6.295595 4.790313 -49.541961 21.553336 61.793316 0.000016 115.689266 -0.000055 10.227510 18.136246 14.149036 2.446821 -3.214397 11.308533 7.892702 -16.398873 -12.930284 0.000001 -0.000006 -0.000001 3.246722 -5.886729 59.158748 2.848851 -5.614888 53.776770 -0.000000 -0.000001 -0.000002 3.561737 -6.070608 60.804250 4.020419 -6.303991 65.024774 -0.000003 0.000001 -0.000000 4.084068 -6.333662 64.876798 3.597804 -6.090545 61.111362 -0.000001 -0.000001 -0.000001 3.078098 -5.867170 65.018073 3.068673 -5.768662 55.993054 -0.000002 0.000001 0.000001 -0.000002 -0.000002 -0.000001 0.000000 -0.000001 0.000002 -0.000002 -0.000002 -0.000001 -0.000001 0.000003 -0.000000 -0.000001 0.000004 0.000001 -0.000001 0.000003 -0.000000 -0.000001 0.000004 -0.000000 0.000001 0.000001 -0.000000 0.000001 0.000001 -0.000000 0.000001 0.000001 -0.000000 0.000001 0.000001 -0.000000 0.000001 0.000001 -0.000000 0.000001 0.000001 -0.000000 0.000001 0.000001 -0.000000 -0.000000 0.000002 0.000000 0.000000 -0.000001 0.000000 
-3.153079 86.448532 2.568687 6.221679 -35.953050 2.592245 0.000000 -0.000001 0.000000 -44.699890 -0.531399 19.182513 44.607942 0.309513 -1.508577 -3.042408 1.547548 -12.457519 0.000000 -0.000000 -0.000000 0.000000 -0.000002 -0.000001 -6.104983 -22.559095 -19.221132 21.685478 -2.508404 -10.044572 -17.219185 -6.453845 29.315616 0.000000 0.000000 0.000000 0.000001 0.000000 -0.000002 3.158344 3.478437 -0.665489 1.945152 3.178840 -0.023097 1.936294 3.191481 -0.067565 4.971784 0.574924 -0.786052 4.971805 0.574923 -0.786057 0.000001 -0.000001 -0.000000 4.971806 0.574913 -0.786051 4.971880 0.574944 -0.786056 -0.000001 0.000001 0.000000 0.000001 -0.000001 -0.000000 0.525453 -2.349161 -3.151119 -53.158420 5.144480 -42.579003 0.000019 -131.710595 0.000023 13.253372 -16.447596 -26.269010 2.771032 3.202181 -11.750340 7.281923 15.699137 13.458070 0.000003 -0.000001 -0.000001 3.214232 5.829184 -59.162279 2.821622 5.560796 -53.780653 0.000000 0.000000 -0.000000 3.525873 6.011158 -60.791545 3.983614 6.244037 -65.044069 -0.000000 0.000002 -0.000000 4.045662 6.272978 -64.879926 3.563332 6.031841 -61.114811 -0.000000 -0.000002 -0.000001 6.738243 7.521685 -64.939970 3.058205 1.637397 -56.291243 0.000001 -0.000003 0.000000 0.000001 -0.000001 -0.000003 0.000001 -0.000001 -0.000003 0.000001 -0.000001 -0.000003 0.000000 0.000001 0.000001 0.000000 0.000000 0.000000 0.000000 0.000001 0.000001 0.000000 -0.000001 0.000000 0.712077 6.179714 4.502223 -50.180734 21.600820 61.811306 0.000018 115.555872 -0.000042 10.142874 18.200772 14.495569 2.446818 -3.214402 11.308538 7.892693 -16.398864 -12.930295 -0.000001 -0.000001 0.000001 3.246720 -5.886730 59.158748 2.848861 -5.614890 53.776805 -0.000003 -0.000001 -0.000001 3.561731 -6.070607 60.804243 4.020424 -6.303986 65.024808 0.000001 -0.000001 0.000000 4.084064 -6.333667 64.876777 3.597800 -6.090542 61.111376 -0.000001 0.000001 -0.000001 3.078102 -5.867178 65.018080 3.068690 -5.768686 55.993071 0.000000 0.000002 -0.000001 -0.000003 0.000003 0.000001 -0.000003 0.000001 -0.000001 -0.000003 0.000002 0.000001 -0.000002 0.000000 0.000001 -0.000002 0.000000 -0.000002 -0.000002 0.000000 0.000001 -0.000002 -0.000000 -0.000001 0.000000 0.000001 -0.000000 0.000000 0.000001 -0.000000 0.000000 0.000001 -0.000000 0.000000 0.000001 -0.000000 0.000000 0.000001 -0.000000 0.000000 0.000001 -0.000000 0.000000 0.000001 -0.000000 -0.000000 0.000002 -0.000000 0.000000 -0.000001 0.000000 
-3.441454 86.504990 2.734651 6.213142 -35.165847 2.435243 0.000000 0.000003 -0.000000 -44.743575 -0.604558 19.026146 44.279621 -0.271707 -1.249782 -2.893188 1.537457 -12.528952 -0.000000 0.000000 -0.000000 0.000000 -0.000001 0.000000 -4.954640 -23.224182 -18.512934 20.831840 -3.186423 -9.967214 -17.282979 -6.402264 28.964216 0.000000 0.000000 0.000000 0.000001 -0.000001 -0.000000 3.110082 3.476709 -0.712746 1.908031 3.174294 -0.010632 1.896500 3.189441 -0.054707 4.906810 0.570111 -0.864386 4.906805 0.570109 -0.864383 -0.000000 -0.000000 -0.000000 4.906813 0.570108 -0.864384 4.906878 0.570115 -0.864386 0.000000 0.000001 0.000000 -0.000000 -0.000000 0.000000 0.522063 -2.279905 -3.205288 -53.104031 4.203406 -42.643169 0.000036 -132.099260 0.000045 12.834118 -16.553670 -25.891311 2.771030 3.202180 -11.750343 7.281928 15.699135 13.458072 0.000004 -0.000004 -0.000001 3.214227 5.829183 -59.162279 2.821618 5.560794 -53.780647 0.000001 -0.000001 -0.000001 3.525873 6.011159 -60.791539 3.983617 6.244037 -65.044069 -0.000001 0.000002 0.000000 4.045665 6.272974 -64.879940 3.563327 6.031843 -61.114811 -0.000001 -0.000002 0.000000 6.738242 7.521681 -64.939970 3.058201 1.637398 -56.291240 0.000000 -0.000002 0.000001 0.000001 -0.000000 -0.000002 0.000001 -0.000000 -0.000002 0.000000 -0.000000 -0.000001 -0.000001 0.000002 0.000002 -0.000001 0.000001 0.000001 -0.000001 0.000002 0.000002 -0.000001 -0.000000 0.000003 0.714213 6.093917 4.241817 -50.892638 21.601004 61.858339 0.000054 115.465482 -0.000071 9.973044 18.199954 14.802254 2.446808 -3.214400 11.308544 7.892700 -16.398866 -12.930290 -0.000000 -0.000003 0.000001 3.246736 -5.886750 59.158748 2.848861 -5.614877 53.776805 -0.000002 -0.000000 0.000000 3.561728 -6.070613 60.804229 4.020409 -6.303998 65.024781 0.000001 -0.000001 -0.000000 4.084063 -6.333665 64.876784 3.597794 -6.090545 61.111362 -0.000000 0.000001 -0.000000 3.078103 -5.867178 65.018067 3.068686 -5.768693 55.993064 0.000005 -0.000000 0.000001 -0.000003 0.000004 -0.000003 -0.000003 0.000001 -0.000002 -0.000003 0.000004 -0.000003 -0.000002 -0.000003 -0.000003 -0.000002 -0.000003 -0.000005 -0.000002 -0.000003 -0.000003 -0.000002 -0.000003 -0.000004 0.000000 -0.000000 -0.000000 0.000000 -0.000000 -0.000000 0.000000 -0.000000 -0.000000 0.000000 -0.000000 -0.000000 0.000000 -0.000000 -0.000000 0.000000 -0.000000 -0.000000 0.000000 -0.000000 -0.000000 -0.000001 -0.000004 0.000001 0.000000 0.000003 -0.000000 
